<svg xmlns="http://www.w3.org/2000/svg" xmlns:xlink="http://www.w3.org/1999/xlink" width="2000" zoomAndPan="magnify" viewBox="0 0 1500 1499.999933" height="2000" preserveAspectRatio="xMidYMid meet" version="1.0"><defs><g/><clipPath id="acc6d02561"><rect x="0" width="983" y="0" height="1500"/></clipPath></defs><g transform="matrix(1, 0, 0, 1, 243, 0.000000000000112861)"><g clip-path="url(#acc6d02561)"><g fill="#059669" fill-opacity="1"><g transform="translate(0.48845, 1430.628115)"><g><path d="M 953.65625 -953.65625 C 953.65625 -953.65625 954.734375 -949.328125 956.890625 -940.671875 C 959.054688 -932.023438 960.140625 -926.257812 960.140625 -923.375 C 960.140625 -904.632812 950.050781 -891.660156 929.875 -884.453125 C 892.382812 -871.484375 843.003906 -853.460938 781.734375 -830.390625 C 720.460938 -807.328125 654.867188 -782.457031 584.953125 -755.78125 C 515.035156 -729.113281 446.914062 -702.804688 380.59375 -676.859375 C 369.0625 -672.535156 363.296875 -667.488281 363.296875 -661.71875 C 363.296875 -655.945312 368.34375 -650.179688 378.4375 -644.421875 C 430.332031 -617.023438 484.753906 -588.191406 541.703125 -557.921875 C 598.648438 -527.648438 651.269531 -499.898438 699.5625 -474.671875 C 747.851562 -449.441406 784.976562 -430.335938 810.9375 -417.359375 C 828.226562 -407.265625 836.875 -392.847656 836.875 -374.109375 C 836.875 -372.671875 836.515625 -370.148438 835.796875 -366.546875 C 835.078125 -362.941406 834.71875 -361.140625 834.71875 -361.140625 C 828.945312 -343.835938 820.65625 -323.648438 809.84375 -300.578125 C 799.03125 -277.515625 787.859375 -257.332031 776.328125 -240.03125 C 766.234375 -225.613281 751.816406 -218.40625 733.078125 -218.40625 C 727.316406 -218.40625 722.269531 -219.125 717.9375 -220.5625 C 713.613281 -222.007812 711.453125 -222.734375 711.453125 -222.734375 C 681.179688 -234.265625 638.65625 -253.003906 583.875 -278.953125 C 529.09375 -304.910156 469.984375 -333.382812 406.546875 -364.375 C 343.109375 -395.375 282.914062 -426.007812 225.96875 -456.28125 C 169.03125 -486.5625 123.257812 -511.789062 88.65625 -531.96875 C 67.03125 -544.945312 56.21875 -563.691406 56.21875 -588.203125 C 56.21875 -593.960938 58.378906 -609.457031 62.703125 -634.6875 C 67.035156 -659.914062 72.441406 -686.585938 78.921875 -714.703125 C 85.410156 -742.816406 90.097656 -762.640625 92.984375 -774.171875 C 98.753906 -791.472656 104.878906 -805.164062 111.359375 -815.25 C 117.847656 -825.34375 131.90625 -834.71875 153.53125 -843.375 C 186.695312 -857.789062 230.671875 -876.53125 285.453125 -899.59375 C 340.234375 -922.65625 400.421875 -947.160156 466.015625 -973.109375 C 531.609375 -999.066406 598.285156 -1024.660156 666.046875 -1049.890625 C 733.804688 -1075.117188 797.238281 -1097.101562 856.34375 -1115.84375 C 856.34375 -1115.84375 858.144531 -1116.203125 861.75 -1116.921875 C 865.351562 -1117.640625 867.875 -1118 869.3125 -1118 C 877.96875 -1118 886.617188 -1115.835938 895.265625 -1111.515625 C 903.921875 -1107.191406 909.6875 -1099.984375 912.5625 -1089.890625 C 928.425781 -1045.203125 942.125 -999.789062 953.65625 -953.65625 Z M 953.65625 -953.65625 "/></g></g></g></g></g></svg>